<?xml version="1.0" encoding="utf-8"?><svg fill="none" viewBox="0 0 1000 1000" xmlns="http://www.w3.org/2000/svg" xmlns:xlink="http://www.w3.org/1999/xlink"><defs><clipPath id="cp-112-93"><rect height="93" width="112" y="0" x="0" /></clipPath><g id="Scene 1"><g transform="matrix(1,0,0,1,73.951,26.313)" visibility="hidden" id="Layer 11 Outlines"><animate repeatCount="indefinite" begin="12s" calcMode="discrete" fill="freeze" dur="0s" values="visible; hidden" keyTimes="0; 1" attributeName="visibility" /><g id="Group 23" transform="matrix(1,0,0,1,19.551,63.49)"><path fill="#d0021b" fill-opacity="1" d="M0.001,3.016C10.661,3.016,19.301,1.665,19.301,0C19.301,-1.665,10.661,-3.015,0.001,-3.015C-10.659,-3.015,-19.301,-1.665,-19.301,0C-19.301,1.665,-10.659,3.016,0.001,3.016Z" /></g><g id="Group 22" transform="matrix(1,0,0,1,31.553,29.332)"><path fill="#57b894" fill-opacity="1" d="M-0.66,1.833C-0.377,1.937,-0.073,1.973,0.227,1.938C0.527,1.903,0.814,1.799,1.067,1.635C1.319,1.47,1.529,1.249,1.682,0.988C1.835,0.728,1.926,0.437,1.947,0.135C1.967,-0.167,1.918,-0.47,1.803,-0.749C1.688,-1.028,1.509,-1.276,1.281,-1.475C1.053,-1.673,0.783,-1.815,0.491,-1.891C0.199,-1.966,-0.105,-1.973,-0.401,-1.909L-0.351,-0.905L-0.826,-1.766C-1.291,-1.547,-1.65,-1.151,-1.825,-0.667C-1.887,-0.497,-1.925,-0.319,-1.936,-0.139C-1.967,0.284,-1.858,0.705,-1.628,1.061C-1.397,1.417,-1.057,1.688,-0.66,1.833Z" /></g><g id="Group 21" transform="matrix(1,0,0,1,34.741,34.257)"><path stroke-linejoin="miter" stroke-linecap="butt" stroke-width="1" stroke-opacity="1" stroke="#7ff7c3" d="M-1.503,8.553C-1.67,7.699,-0.945,6.944,-0.23,6.451C0.486,5.959,1.323,5.475,1.568,4.639C1.92,3.439,0.874,2.341,0.06,1.393C-0.544,0.69,-1.065,-0.084,-1.486,-0.91C-1.67,-1.234,-1.795,-1.588,-1.857,-1.956C-1.92,-2.488,-1.749,-3.018,-1.577,-3.525C-1.006,-5.217,-0.395,-6.891,0.258,-8.553" /></g><g id="Group 20" transform="matrix(1,0,0,1,34.829,26.027)"><path fill="#57b894" fill-opacity="1" d="M-1.828,-0.671C-1.718,-0.979,-1.53,-1.252,-1.285,-1.469C-1.04,-1.685,-0.745,-1.837,-0.428,-1.908L-0.268,-0.954L0.029,-1.956C0.443,-1.95,0.843,-1.812,1.172,-1.564C1.502,-1.315,1.744,-0.968,1.863,-0.572C1.983,-0.177,1.975,0.248,1.839,0.639C1.703,1.029,1.445,1.365,1.107,1.6C0.767,1.835,0.36,1.956,-0.053,1.945C-0.464,1.934,-0.861,1.791,-1.188,1.538C-1.515,1.285,-1.752,0.935,-1.867,0.538C-1.982,0.141,-1.97,-0.282,-1.828,-0.671Z" /></g><g id="Group 19" transform="matrix(1,0,0,1,35.146,33.853)"><path fill="#57b894" fill-opacity="1" d="M-0.688,1.816C-0.239,1.979,0.254,1.971,0.699,1.794C1.142,1.616,1.505,1.28,1.719,0.851C1.932,0.422,1.98,-0.071,1.854,-0.533C1.728,-0.995,1.437,-1.395,1.036,-1.656L0.807,-0.885L0.645,-1.85C0.644,-1.851,0.642,-1.851,0.641,-1.852C0.4,-1.939,0.144,-1.978,-0.111,-1.967C-0.366,-1.955,-0.616,-1.895,-0.848,-1.786C-1.08,-1.677,-1.289,-1.525,-1.46,-1.335C-1.633,-1.146,-1.766,-0.925,-1.854,-0.684C-1.941,-0.444,-1.979,-0.188,-1.967,0.068C-1.957,0.324,-1.895,0.577,-1.788,0.808C-1.679,1.041,-1.526,1.249,-1.337,1.421C-1.149,1.594,-0.928,1.729,-0.688,1.816Z" /></g><g id="Group 18" transform="matrix(1,0,0,1,34.361,38.553)"><path fill="#57b894" fill-opacity="1" d="M-1.929,0.356C-1.852,0.796,-1.626,1.197,-1.288,1.49C-0.951,1.784,-0.524,1.952,-0.077,1.967C0.368,1.982,0.805,1.843,1.161,1.573C1.517,1.303,1.769,0.918,1.877,0.484C1.983,0.049,1.937,-0.409,1.747,-0.813C1.557,-1.217,1.233,-1.544,0.831,-1.739C0.429,-1.933,-0.027,-1.982,-0.461,-1.879C-0.896,-1.776,-1.281,-1.527,-1.554,-1.172L-0.687,0.136L-1.87,-0.558C-1.963,-0.262,-1.983,0.051,-1.929,0.356Z" /></g><g id="Group 17" transform="matrix(1,0,0,1,34.329,44.051)"><path fill="#656380" fill-opacity="1" d="M-3.793,-0.083C-3.793,-0.083,-2.076,-0.758,-1.559,-1.127C-1.041,-1.497,1.084,-1.937,1.212,-1.346C1.341,-0.753,3.793,1.602,1.853,1.617C-0.085,1.633,-2.651,1.937,-3.168,1.621C-3.685,1.306,-3.793,-0.083,-3.793,-0.083Z" /></g><g id="Group 16" transform="matrix(1,0,0,1,33.731,44.89)"><path fill="#d0021b" fill-opacity="1" d="M2.487,0.572C0.549,0.588,-2.019,0.891,-2.534,0.575C-2.929,0.335,-3.085,-0.527,-3.138,-0.924C-3.174,-0.923,-3.195,-0.922,-3.195,-0.922C-3.195,-0.922,-3.086,0.467,-2.57,0.782C-2.053,1.097,0.513,0.794,2.452,0.778C3.012,0.773,3.205,0.574,3.195,0.278C3.117,0.457,2.903,0.568,2.487,0.572Z" /></g><g id="Group 15" transform="matrix(1,0,0,1,30.841,36.451)"><path fill="#a0616a" fill-opacity="1" d="M0.315,-2.759C0.315,-2.759,1.494,1.498,0,2.129C-1.494,2.759,-1.022,-2.601,-1.022,-2.601L0.315,-2.759Z" /></g><g id="Group 14" transform="matrix(1,0,0,1,18.81,62.384)"><path fill="#575a89" fill-opacity="1" d="M1.652,-1.419C1.652,-1.419,0.55,-1.498,0.158,-1.262C0.04,-1.192,-0.091,-1.15,-0.227,-1.137C-0.363,-1.123,-0.499,-1.138,-0.628,-1.182C-0.628,-1.182,-2.359,-1.34,-1.73,-0.473C-1.101,0.394,-0.471,0.71,-0.471,1.103C-0.471,1.498,2.124,1.498,2.202,1.103C2.281,0.71,2.359,-1.341,2.202,-1.419C2.045,-1.498,1.652,-1.419,1.652,-1.419Z" /></g><g id="Group 13" transform="matrix(1,0,0,1,25.022,62.384)"><path fill="#575a89" fill-opacity="1" d="M-1.651,-1.419C-1.651,-1.419,-0.55,-1.498,-0.157,-1.262C-0.04,-1.192,0.092,-1.15,0.228,-1.137C0.363,-1.123,0.5,-1.138,0.629,-1.182C0.629,-1.182,2.359,-1.34,1.73,-0.473C1.101,0.394,0.472,0.71,0.472,1.103C0.472,1.498,-2.123,1.498,-2.202,1.103C-2.28,0.71,-2.359,-1.341,-2.202,-1.419C-2.045,-1.498,-1.651,-1.419,-1.651,-1.419Z" /></g><g id="Group 12" transform="matrix(1,0,0,1,23.607,46.383)"><path fill="#7ff7c3" fill-opacity="1" d="M-6.369,-13.557C-6.369,-13.557,-6.919,-1.104,-6.604,-0.473C-6.29,0.158,-5.19,10.798,-5.348,11.429C-5.505,12.06,-6.291,14.661,-5.348,15.055C-4.404,15.449,-2.359,15.055,-2.359,15.055C-2.359,15.055,-1.808,11.902,-2.044,10.247C-2.28,8.591,-2.359,1.655,-2.359,1.655L-0.786,-5.596L-0.236,1.261C-0.236,1.261,-0.079,10.641,-1.18,12.533C-2.281,14.424,-0.786,15.213,-0.786,15.213C-0.786,15.213,2.201,15.607,2.516,15.528C2.83,15.449,2.279,12.376,2.516,11.035C2.752,9.695,3.303,2.207,3.775,0.394C4.247,-1.418,6.92,-11.508,4.954,-13.557C2.988,-15.607,-6.369,-13.557,-6.369,-13.557Z" /></g><g id="Group 11" transform="matrix(1,0,0,1,22.978,4.922)"><path fill="#a0616a" fill-opacity="1" d="M0,2.759C1.521,2.759,2.752,1.524,2.752,0C2.752,-1.523,1.521,-2.759,0,-2.759C-1.52,-2.759,-2.752,-1.523,-2.752,0C-2.752,1.524,-1.52,2.759,0,2.759Z" /></g><g id="Group 10" transform="matrix(1,0,0,1,23.135,8.036)"><path fill="#a0616a" fill-opacity="1" d="M-2.202,-1.853C-2.202,-1.853,-1.73,1.932,-1.967,2.01C-2.202,2.089,2.202,2.01,2.202,2.01C2.202,2.01,1.337,-0.276,2.202,-2.089L-2.202,-1.853Z" /></g><g id="Group 9" transform="matrix(1,0,0,1,23.098,8.594)"><path fill="#d0021b" fill-opacity="1" d="M-2.165,0.664C-2.165,0.664,-0.248,-1.228,2.018,0.664L2.165,1.228L0.982,1.216L-2.165,1.216L-2.165,0.664Z" /></g><g id="Group 8" transform="matrix(1,0,0,1,23.135,21.47)"><path fill="#575a89" fill-opacity="1" d="M7.156,11.986C6.973,12.022,6.529,12.097,5.949,12.186C4.016,12.478,0.593,12.922,0.471,12.618C0.314,12.223,-0.236,10.805,-0.629,11.435C-1.022,12.066,-0.786,12.618,-2.438,12.697C-3.561,12.751,-5.195,12.585,-6.099,12.325C-6.524,12.203,-6.787,12.06,-6.762,11.909C-6.684,11.435,-5.819,2.45,-5.819,1.583C-5.819,0.716,-5.504,-3.462,-5.504,-3.462L-7.764,-7.919L-7.942,-8.271C-7.942,-8.271,-7.706,-9.138,-6.998,-9.296C-6.29,-9.453,-2.909,-11.424,-2.909,-11.424C-2.909,-11.424,-2.201,-12.528,-0.865,-12.449C0.471,-12.37,0.786,-12.922,2.594,-11.424C2.594,-11.424,4.797,-10.478,5.583,-10.005C6.369,-9.532,7.234,-9.531,7.313,-8.743C7.329,-8.585,7.243,-8.281,7.095,-7.895C6.557,-6.483,5.196,-3.983,4.983,-3.594C4.965,-3.56,4.954,-3.542,4.954,-3.542C4.954,-3.542,4.913,-2.124,4.956,-0.465L4.956,-0.46C4.999,1.132,5.118,2.945,5.426,3.947C6.054,5.997,7.942,11.829,7.156,11.986Z" /></g><g id="Group 7" transform="matrix(1,0,0,1,23.001,4.25)"><path fill="#7ff7c3" fill-opacity="1" d="M3.55,-0.46C3.494,-0.711,3.389,-0.948,3.238,-1.157C3.179,-1.733,2.987,-2.288,2.678,-2.778C2.557,-3.007,2.385,-3.206,2.176,-3.359C1.936,-3.498,1.662,-3.566,1.386,-3.557C1.335,-3.557,1.245,-3.542,1.164,-3.538C1.112,-3.555,1.06,-3.569,1.007,-3.583C0.976,-3.651,0.915,-3.851,0.899,-3.837L0.669,-3.654C0.572,-3.671,0.475,-3.684,0.377,-3.695C0.341,-3.796,0.306,-3.898,0.27,-4C0.212,-3.909,0.161,-3.814,0.118,-3.715C0.022,-3.72,-0.076,-3.721,-0.174,-3.72L-0.369,-3.907C-0.38,-3.855,-0.407,-3.807,-0.445,-3.77C-0.483,-3.732,-0.531,-3.707,-0.584,-3.696C-0.674,-3.687,-0.762,-3.675,-0.851,-3.661C-0.859,-3.661,-0.866,-3.661,-0.873,-3.661C-1.353,-3.673,-1.87,-3.694,-2.271,-3.43C-2.459,-3.301,-2.612,-3.127,-2.716,-2.924C-2.765,-2.891,-2.814,-2.857,-2.862,-2.822C-3.023,-2.712,-3.163,-2.573,-3.274,-2.413C-3.354,-2.274,-3.416,-2.126,-3.456,-1.97C-3.609,-1.503,-3.68,-1.013,-3.666,-0.522C-3.649,-0.026,-3.463,0.448,-3.138,0.821C-2.932,1.042,-2.671,1.206,-2.465,1.428C-2.04,1.884,-1.961,2.519,-1.597,3.002C-1.214,3.512,-0.512,3.848,0.103,3.944C0.473,4,0.85,3.982,1.213,3.892C1.576,3.801,1.917,3.639,2.218,3.415C2.363,3.314,2.485,3.186,2.578,3.037C2.792,2.666,2.701,2.201,2.78,1.78C2.93,0.993,3.68,0.332,3.55,-0.46Z" /></g><g id="Group 6" transform="matrix(1,0,0,1,15.744,36.689)"><path fill="#a0616a" fill-opacity="1" d="M0.315,-2.759C0.315,-2.759,1.494,1.497,0,2.128C-1.494,2.759,-1.022,-2.602,-1.022,-2.602L0.315,-2.759Z" /></g><g id="Group 5" transform="matrix(1,0,0,1,16.776,23.496)"><path fill="#d0021b" fill-opacity="1" d="M0.697,0.774C0.697,0.774,0.181,8.448,0.26,10.297C-0.164,10.175,-0.428,10.033,-0.403,9.881C-0.324,9.408,0.541,0.422,0.541,-0.445C0.541,-1.312,0.855,-5.489,0.855,-5.489L-1.405,-9.947C-1.368,-10.167,-1.347,-10.297,-1.347,-10.297L-0.206,-7.893L1.406,-7.46L0.697,0.774Z" /></g><g id="Group 4" transform="matrix(1,0,0,1,15.429,23.84)"><path fill="#575a89" fill-opacity="1" d="M0.314,-11.114L-0.236,-10.641C-0.236,-10.641,-0.944,-6.464,-0.865,-5.439C-0.787,-4.414,-2.516,11.114,-1.179,11.114C0.157,11.114,1.651,10.878,1.416,10.326C1.179,9.774,1.808,0.43,1.808,0.43L2.516,-7.803L0.314,-11.114Z" /></g><g id="Group 3" transform="matrix(1,0,0,1,29.175,15.183)"><path fill="#d0021b" fill-opacity="1" d="M1.056,-1.608C0.518,-0.196,-0.843,2.304,-1.056,2.693C-1.05,1.685,-1.047,0.972,-1.047,0.972L0.605,-2.418L0.958,-2.693C0.958,-2.693,0.996,-2.276,1.056,-1.608Z" /></g><g id="Group 2" transform="matrix(1,0,0,1,29.253,27.332)"><path fill="#d0021b" fill-opacity="1" d="M1.039,6.124C0.856,6.16,0.412,6.234,-0.168,6.323C-0.47,4.091,-1.274,-2.328,-1.224,-2.934C-1.198,-3.231,-1.177,-4.703,-1.16,-6.323C-1.118,-4.732,-0.999,-2.918,-0.691,-1.916C-0.063,0.134,1.825,5.967,1.039,6.124Z" /></g><g id="Group 1" transform="matrix(1,0,0,1,30.172,23.485)"><path fill="#575a89" fill-opacity="1" d="M-0.904,-11.311L0.277,-10.996C0.277,-10.996,1.062,-2.247,1.141,-0.749C1.22,0.749,2.163,9.971,2.006,10.365C1.849,10.759,-0.59,11.311,-0.669,10.917C-0.747,10.522,-1.889,1.63,-1.829,0.913C-1.768,0.197,-2.163,-7.212,-2.163,-7.212L-0.904,-11.311Z" /></g></g><g transform="matrix(1,0,0,1,24.869,36.818)" visibility="hidden" id="Layer 13 Outlines"><animate repeatCount="indefinite" begin="12s" calcMode="discrete" fill="freeze" dur="0s" values="visible; hidden" keyTimes="0; 1" attributeName="visibility" /><g id="Group 1" transform="matrix(1,0,0,1,33.087,17.682)"><path fill="#ff8e02" fill-opacity="1" d="M-32.837,17.432C-32.837,17.432,8.836,-17.432,32.837,17.432L-32.837,17.432Z" /></g></g><g transform="matrix(1,0,0,1,19.815,8.575)" visibility="hidden" id="Layer 12 Outlines"><animate repeatCount="indefinite" begin="0.3s" calcMode="discrete" fill="freeze" dur="6.967s" values="visible; hidden" keyTimes="0; 1" attributeName="visibility" /><g id="Group 1" transform="matrix(1,0,0,1,31.139,23.419)"><path stroke-linejoin="miter" stroke-linecap="butt" stroke-width="1" stroke-opacity="1" stroke="#ffcd57" d="M-22.326,11.794L-22.174,11.456" /></g></g><g transform="matrix(1,0,0,1,31.815,-2.425)" visibility="hidden" id="Layer 12 Outlines 2"><animate repeatCount="indefinite" begin="1.1s" calcMode="discrete" fill="freeze" dur="6.967s" values="visible; hidden" keyTimes="0; 1" attributeName="visibility" /><g id="Group 1" transform="matrix(0.989,0,0,0.999,31.139,23.419)"><path stroke-linejoin="miter" stroke-linecap="butt" stroke-width="1" stroke-opacity="1" stroke="#ffcd57" d="M-20.326,10.544L-20.299,10.331L-20.326,10.544Z" /></g></g><g transform="matrix(1,0,0,1,31.815,-2.425)" visibility="hidden" id="Layer 12 Outlines 5"><animate repeatCount="indefinite" begin="2s" calcMode="discrete" fill="freeze" dur="6.967s" values="visible; hidden" keyTimes="0; 1" attributeName="visibility" /><g id="Group 1" transform="matrix(0.989,0,0,0.999,45.976,15.427)"><path stroke-linejoin="miter" stroke-linecap="butt" stroke-width="1" stroke-opacity="1" stroke="#ffcd57" d="M-20.326,10.544L-20.299,10.331L-20.326,10.544Z" /></g></g><g transform="matrix(1,0,0,1,45.815,-10.425)" visibility="hidden" id="Layer 12 Outlines 6"><animate repeatCount="indefinite" begin="3s" calcMode="discrete" fill="freeze" dur="6.967s" values="visible; hidden" keyTimes="0; 1" attributeName="visibility" /><g id="Group 1" transform="matrix(0.989,0,0,0.999,45.976,15.427)"><path stroke-linejoin="miter" stroke-linecap="butt" stroke-width="1" stroke-opacity="1" stroke="#ffcd57" d="M-20.326,10.544L-20.299,10.331L-20.326,10.544Z" /></g></g><g transform="matrix(-0.757,0,0,12.967,58.407,-414.319)" visibility="hidden" id="Layer 12 Outlines 3"><animate repeatCount="indefinite" begin="2.667s" calcMode="discrete" fill="freeze" dur="6.967s" values="visible; hidden" keyTimes="0; 1" attributeName="visibility" /></g><g transform="matrix(1,0,0,1,80.831,9.932)" visibility="hidden" id="Layer 10 Outlines"><animate repeatCount="indefinite" begin="1.733s" calcMode="discrete" fill="freeze" dur="12s" values="visible; hidden" keyTimes="0; 1" attributeName="visibility" /><g id="Group 1" transform="matrix(1,0,0,1,4.009,31.156)"><path fill="#c10fff" fill-opacity="1" d="M2.381,30.844L-2.169,30.844C-2.989,30.844,-3.654,31.511,-3.654,32.333L-3.76,29.417C-3.76,30.239,-3.095,30.906,-2.275,30.906L2.276,30.906C3.096,30.906,3.76,30.239,3.76,29.417L3.865,32.333C3.865,31.511,3.201,30.844,2.381,30.844Z" /></g></g><g transform="matrix(1,0,0,1,66.543,23.752)" visibility="hidden" id="Layer 9 Outlines"><animate repeatCount="indefinite" begin="1.633s" calcMode="discrete" fill="freeze" dur="12s" values="visible; hidden" keyTimes="0; 1" attributeName="visibility" /><g id="Group 1" transform="matrix(1,0,0,1,4.01,24.247)"><path fill="#c10fff" fill-opacity="1" d="M2.343,24.254L-2.207,24.254C-3.027,24.254,-3.692,24.921,-3.692,25.743L-3.759,22.508C-3.759,23.33,-3.095,23.997,-2.275,23.997L2.275,23.997C3.095,23.997,3.759,23.33,3.759,22.508L3.827,25.743C3.827,24.921,3.163,24.254,2.343,24.254Z" /></g></g><g transform="matrix(1,0,0,1,52.254,31.667)" visibility="hidden" id="Layer 8 Outlines"><animate repeatCount="indefinite" begin="1s" calcMode="discrete" fill="freeze" dur="12s" values="visible; hidden" keyTimes="0; 1" attributeName="visibility" /><g id="Group 1" transform="matrix(1,0,0,1,4.01,20.289)"><path fill="#c10fff" fill-opacity="1" d="M2.304,20.461L-2.245,20.461C-3.066,20.461,-3.731,21.128,-3.731,21.95L-3.76,18.549C-3.76,19.372,-3.095,20.039,-2.274,20.039L2.275,20.039C3.095,20.039,3.76,19.372,3.76,18.549L3.789,21.95C3.789,21.128,3.124,20.461,2.304,20.461Z" /></g></g><g transform="matrix(1,0,0,1,37.966,39.958)" visibility="hidden" id="Layer 7 Outlines"><animate repeatCount="indefinite" begin="0.433s" calcMode="discrete" fill="freeze" dur="12s" values="visible; hidden" keyTimes="0; 1" attributeName="visibility" /><g id="Group 1" transform="matrix(1,0,0,1,4.01,16.143)"><path fill="#c10fff" fill-opacity="1" d="M2.266,16.107L-2.284,16.107C-3.104,16.107,-3.769,16.774,-3.769,17.596L-3.76,14.404C-3.76,15.226,-3.095,15.893,-2.275,15.893L2.275,15.893C3.095,15.893,3.76,15.226,3.76,14.404L3.751,17.596C3.751,16.774,3.086,16.107,2.266,16.107Z" /></g></g><g transform="matrix(1,0,0,1,23.678,51.894)" id="Layer 6 Outlines"><animate repeatCount="indefinite" begin="0s" calcMode="discrete" fill="freeze" dur="12s" values="visible; hidden" keyTimes="0; 1" attributeName="visibility" /><g id="Group 1" transform="matrix(1,0,0,1,4.01,10.175)"><path fill="#c10fff" fill-opacity="1" d="M2.228,9.825L-2.322,9.825C-3.142,9.825,-3.807,10.492,-3.807,11.314L-3.76,8.436C-3.76,9.259,-3.095,9.926,-2.275,9.926L2.275,9.926C3.095,9.926,3.76,9.259,3.76,8.436L3.713,11.314C3.713,10.492,3.048,9.825,2.228,9.825Z" /></g></g><g visibility="hidden" id="Layer 14 Outlines"><animate repeatCount="indefinite" begin="3.067s" calcMode="discrete" fill="freeze" dur="12s" values="visible; visible" keyTimes="0; 1" attributeName="visibility" /><g transform="translate(86.03,1.576)"><g transform="scale(0,0)"><animateTransform repeatCount="indefinite" type="scale" attributeName="transform" dur="0.2s" begin="3.067s" calcMode="spline" values="0 0; 1 1" keyTimes="0; 1" keySplines="0 0 1 1" fill="freeze" /><g transform="translate(-1.754,-1.507)"><g id="Group 1" transform="matrix(1,0,0,1,1.629,1.632)"><path fill="#ffcd57" fill-opacity="1" d="M0,1.382C0.762,1.382,1.379,0.763,1.379,0C1.379,-0.764,0.762,-1.382,0,-1.382C-0.762,-1.382,-1.379,-0.764,-1.379,0C-1.379,0.763,-0.762,1.382,0,1.382Z" /></g></g></g></g></g><g visibility="hidden" id="Layer 5 Outlines"><animate repeatCount="indefinite" begin="2.267s" calcMode="discrete" fill="freeze" dur="12s" values="visible; hidden" keyTimes="0; 1" attributeName="visibility" /><g transform="translate(71.618,15.396)"><g transform="scale(0,0)"><animateTransform repeatCount="indefinite" type="scale" attributeName="transform" dur="0.2s" begin="2.267s" calcMode="spline" values="0 0; 1 1" keyTimes="0; 1" keySplines="0 0 1 1" fill="freeze" /><g transform="translate(-1.629,-1.507)"><g id="Group 1" transform="matrix(1,0,0,1,1.629,1.632)"><path fill="#ffcd57" fill-opacity="1" d="M-0.001,1.382C0.761,1.382,1.379,0.763,1.379,0C1.379,-0.763,0.761,-1.382,-0.001,-1.382C-0.762,-1.382,-1.379,-0.763,-1.379,0C-1.379,0.763,-0.762,1.382,-0.001,1.382Z" /></g></g></g></g></g><g visibility="hidden" id="Layer 3 Outlines"><animate repeatCount="indefinite" begin="1.567s" calcMode="discrete" fill="freeze" dur="12s" values="visible; hidden" keyTimes="0; 1" attributeName="visibility" /><g transform="translate(57.455,23.686)"><g transform="scale(0,0)"><animateTransform repeatCount="indefinite" type="scale" attributeName="transform" dur="0.2s" begin="1.567s" calcMode="spline" values="0 0; 1 1" keyTimes="0; 1" keySplines="0 0 1 1" fill="freeze" /><g transform="translate(-1.754,-1.882)"><g id="Group 1" transform="matrix(1,0,0,1,1.629,1.632)"><path fill="#ffcd57" fill-opacity="1" d="M-0.001,1.382C0.761,1.382,1.378,0.763,1.378,0C1.378,-0.764,0.761,-1.382,-0.001,-1.382C-0.762,-1.382,-1.378,-0.764,-1.378,0C-1.378,0.763,-0.762,1.382,-0.001,1.382Z" /></g></g></g></g></g><g visibility="hidden" id="Layer 4 Outlines"><animate repeatCount="indefinite" begin="0.9s" calcMode="discrete" fill="freeze" dur="12s" values="visible; hidden" keyTimes="0; 1" attributeName="visibility" /><g transform="translate(42.916,31.603)"><g transform="scale(0,0)"><animateTransform repeatCount="indefinite" type="scale" attributeName="transform" dur="0.2s" begin="0.9s" calcMode="spline" values="0 0; 1 1" keyTimes="0; 1" keySplines="0 0 1 1" fill="freeze" /><g transform="translate(-1.629,-1.632)"><g id="Group 1" transform="matrix(1,0,0,1,1.629,1.632)"><path fill="#ffcd57" fill-opacity="1" d="M-0.001,1.382C0.76,1.382,1.378,0.763,1.378,0C1.378,-0.764,0.76,-1.382,-0.001,-1.382C-0.762,-1.382,-1.378,-0.764,-1.378,0C-1.378,0.763,-0.762,1.382,-0.001,1.382Z" /></g></g></g></g></g><g id="Layer 2 Outlines"><animate repeatCount="indefinite" begin="0s" calcMode="discrete" fill="freeze" dur="12s" values="visible; hidden" keyTimes="0; 1" attributeName="visibility" /><g transform="translate(28.378,43.538)"><g transform="scale(0,0)"><animateTransform repeatCount="indefinite" type="scale" attributeName="transform" dur="0.2s" begin="0s" calcMode="spline" values="0 0; 1 1" keyTimes="0; 1" keySplines="0 0 1 1" fill="freeze" /><g transform="translate(-1.379,-1.632)"><g id="Group 1" transform="matrix(1,0,0,1,1.629,1.632)"><path fill="#ffcd57" fill-opacity="1" d="M-0.001,1.382C0.76,1.382,1.378,0.763,1.378,0C1.378,-0.763,0.76,-1.382,-0.001,-1.382C-0.762,-1.382,-1.378,-0.763,-1.378,0C-1.378,0.763,-0.762,1.382,-0.001,1.382Z" /></g></g></g></g></g></g></defs><g transform="matrix(12.66,0,0,12.66,-219.025,25.467)" id=" undraw_investing_7u74"><use clip-path="url(#cp-112-93)" height="93" width="112" y="0" x="0" xlink:href="#Scene 1" href="#Scene 1" /></g></svg>